<?xml version="1.0" encoding="UTF-8" standalone="no"?>
<!-- Created with Inkscape (http://www.inkscape.org/) -->

<svg
   xmlns:dc="http://purl.org/dc/elements/1.1/"
   xmlns:cc="http://creativecommons.org/ns#"
   xmlns:rdf="http://www.w3.org/1999/02/22-rdf-syntax-ns#"
   xmlns:svg="http://www.w3.org/2000/svg"
   xmlns="http://www.w3.org/2000/svg"
   xmlns:xlink="http://www.w3.org/1999/xlink"
   xmlns:sodipodi="http://sodipodi.sourceforge.net/DTD/sodipodi-0.dtd"
   xmlns:inkscape="http://www.inkscape.org/namespaces/inkscape"
   version="1.1"
   id="svg2"
   xml:space="preserve"
   width="530"
   height="530"
   viewBox="0 0 530 530"
   sodipodi:docname="fox_givnotes_logo_1.svg"
   inkscape:version="0.92.5 (2060ec1f9f, 2020-04-08)"
   inkscape:export-filename="/home/gagan/Desktop/logo/fox_givnotes_logo_2.png"
   inkscape:export-xdpi="96"
   inkscape:export-ydpi="96"><metadata
     id="metadata8"><rdf:RDF><cc:Work
         rdf:about=""><dc:format>image/svg+xml</dc:format><dc:type
           rdf:resource="http://purl.org/dc/dcmitype/StillImage" /><dc:title /></cc:Work></rdf:RDF></metadata><defs
     id="defs6"><clipPath
       clipPathUnits="userSpaceOnUse"
       id="clipPath20"><path
         d="M 0,1080 H 1920 V 0 H 0 Z"
         id="path18"
         inkscape:connector-curvature="0" /></clipPath><clipPath
       clipPathUnits="userSpaceOnUse"
       id="clipPath28"><path
         d="M 515.481,879.519 H 743.796 V 651.204 H 515.481 Z"
         id="path26"
         inkscape:connector-curvature="0" /></clipPath><clipPath
       clipPathUnits="userSpaceOnUse"
       id="clipPath44"><path
         d="M 412.27,826.914 H 803.15 V 436.034 H 412.27 Z"
         id="path42"
         inkscape:connector-curvature="0" /></clipPath><clipPath
       clipPathUnits="userSpaceOnUse"
       id="clipPath60"><path
         d="M 589.206,626.191 H 830.559 V 384.838 H 589.206 Z"
         id="path58"
         inkscape:connector-curvature="0" /></clipPath><clipPath
       clipPathUnits="userSpaceOnUse"
       id="clipPath76"><path
         d="M 563.085,657.731 H 804.438 V 416.378 H 563.085 Z"
         id="path74"
         inkscape:connector-curvature="0" /></clipPath><clipPath
       clipPathUnits="userSpaceOnUse"
       id="clipPath92"><path
         d="M 517.49,655.731 H 758.843 V 414.378 H 517.49 Z"
         id="path90"
         inkscape:connector-curvature="0" /></clipPath><clipPath
       clipPathUnits="userSpaceOnUse"
       id="clipPath108"><path
         d="M 495.521,504.799 H 887.72 V 112.6 H 495.521 Z"
         id="path106"
         inkscape:connector-curvature="0" /></clipPath><clipPath
       clipPathUnits="userSpaceOnUse"
       id="clipPath124"><path
         d="m 593.201,479.995 c 5.429,-25.509 18.974,-48.006 37.82,-64.661 v 0 c 21.098,-18.672 48.85,-29.995 79.236,-29.995 v 0 c 10.836,0 21.337,1.44 31.317,4.139 v 0 c 35.229,9.525 64.011,34.731 78.391,67.673 v 0 c -25.912,26.359 -74.878,49.134 -129.674,49.131 v 0 c -31.528,-0.002 -64.996,-7.546 -97.09,-26.287"
         id="path122"
         inkscape:connector-curvature="0" /></clipPath><linearGradient
       x1="0"
       y1="0"
       x2="1"
       y2="0"
       gradientUnits="userSpaceOnUse"
       gradientTransform="matrix(31.999998,-112,-112,-31.999998,691.0976,522.26282)"
       spreadMethod="pad"
       id="linearGradient134"><stop
         style="stop-opacity:1;stop-color:#f19a2e"
         offset="0"
         id="stop130" /><stop
         style="stop-opacity:1;stop-color:#ed1c24"
         offset="1"
         id="stop132" /></linearGradient><clipPath
       clipPathUnits="userSpaceOnUse"
       id="clipPath144"><path
         d="m 722.111,439.488 c 0,-19.278 7.38,-36.843 19.463,-50.01 v 0 c 35.229,9.525 64.011,34.731 78.391,67.673 v 0 c -19.679,17.599 -42.966,31.242 -68.628,39.652 v 0 c -0.476,0.162 -0.953,0.313 -1.441,0.455 v 0 c -16.937,-13.546 -27.785,-34.385 -27.785,-57.77"
         id="path142"
         inkscape:connector-curvature="0" /></clipPath><linearGradient
       x1="0"
       y1="0"
       x2="1"
       y2="0"
       gradientUnits="userSpaceOnUse"
       gradientTransform="matrix(-5,77,77,5,773.09357,415.44901)"
       spreadMethod="pad"
       id="linearGradient160"><stop
         style="stop-opacity:1;stop-color:#f19a2e"
         offset="0"
         id="stop150" /><stop
         style="stop-opacity:1;stop-color:#f6c07d"
         offset="0.33627867"
         id="stop152" /><stop
         style="stop-opacity:1;stop-color:#f6c07d"
         offset="0.343243"
         id="stop154" /><stop
         style="stop-opacity:1;stop-color:#ffffff"
         offset="0.9214047"
         id="stop156" /><stop
         style="stop-opacity:1;stop-color:#ffffff"
         offset="1"
         id="stop158" /></linearGradient><clipPath
       clipPathUnits="userSpaceOnUse"
       id="clipPath170"><path
         d="m 653.246,653.368 c 0.185,-0.022 0.368,-0.044 0.542,-0.076 v 0 c 9.481,2.416 19.418,3.706 29.659,3.706 v 0 c 51.864,0 96.022,-32.997 112.634,-79.139 v 0 c 4.595,16.526 7.044,33.93 7.044,51.918 v 0 c 0,54.843 -22.8,104.355 -59.438,139.584 v 0 c -0.032,-55.97 -38.502,-102.968 -90.441,-115.993"
         id="path168"
         inkscape:connector-curvature="0" /></clipPath><linearGradient
       x1="0"
       y1="0"
       x2="1"
       y2="0"
       gradientUnits="userSpaceOnUse"
       gradientTransform="matrix(-13,-121,-121,13,736.94165,717.80762)"
       spreadMethod="pad"
       id="linearGradient180"><stop
         style="stop-opacity:1;stop-color:#f19a2e"
         offset="0"
         id="stop176" /><stop
         style="stop-opacity:1;stop-color:#ed1c24"
         offset="1"
         id="stop178" /></linearGradient><clipPath
       clipPathUnits="userSpaceOnUse"
       id="clipPath190"><path
         d="M 653.788,653.292 C 712.337,645.49 757.503,595.36 757.503,534.676 v 0 c 0,-12.549 -1.929,-24.642 -5.504,-36 v 0 c 20.449,22.215 35.771,49.242 44.082,79.183 v 0 c -16.612,46.142 -60.77,79.139 -112.634,79.139 v 0 c -10.241,0 -20.178,-1.29 -29.659,-3.706"
         id="path188"
         inkscape:connector-curvature="0" /></clipPath><linearGradient
       x1="0"
       y1="0"
       x2="1"
       y2="0"
       gradientUnits="userSpaceOnUse"
       gradientTransform="matrix(-156,151,151,156,799.92212,521.71143)"
       spreadMethod="pad"
       id="linearGradient206"><stop
         style="stop-opacity:1;stop-color:#f19a2e"
         offset="0"
         id="stop196" /><stop
         style="stop-opacity:1;stop-color:#f6c07d"
         offset="0.33627867"
         id="stop198" /><stop
         style="stop-opacity:1;stop-color:#f6c07d"
         offset="0.343243"
         id="stop200" /><stop
         style="stop-opacity:1;stop-color:#ffffff"
         offset="0.9214047"
         id="stop202" /><stop
         style="stop-opacity:1;stop-color:#ffffff"
         offset="1"
         id="stop204" /></linearGradient><clipPath
       clipPathUnits="userSpaceOnUse"
       id="clipPath216"><path
         d="m 683.702,621.732 c -51.11,-11.571 -89.82,-55.87 -92.91,-109.72 v 0 c -0.14,-2.31 -0.21,-4.641 -0.21,-6.991 v 0 c 0,-8.589 0.901,-16.95 2.62,-25.029 v 0 c 28.68,16.799 62.07,26.429 97.71,26.429 v 0 c 21.101,0 41.41,-3.37 60.43,-9.62 v 0 c 0.171,0.52 0.351,1.039 0.51,1.57 v 0 c 0.06,0.19 0.12,0.391 0.18,0.58 v 0 c 3.56,11.32 5.47,23.37 5.47,35.87 v 0 c 0,35.701 -15.64,67.76 -40.44,89.68 v 0 c -2.25,0.13 -4.52,0.191 -6.81,0.191 v 0 c -9.12,0 -18.01,-1.021 -26.55,-2.96"
         id="path214"
         inkscape:connector-curvature="0" /></clipPath><linearGradient
       x1="0"
       y1="0"
       x2="1"
       y2="0"
       gradientUnits="userSpaceOnUse"
       gradientTransform="matrix(47.999912,-97.999825,-97.999825,-47.999912,635.20746,603.263)"
       spreadMethod="pad"
       id="linearGradient226"><stop
         style="stop-opacity:1;stop-color:#f19a2e"
         offset="0"
         id="stop222" /><stop
         style="stop-opacity:1;stop-color:#ed1c24"
         offset="1"
         id="stop224" /></linearGradient><clipPath
       clipPathUnits="userSpaceOnUse"
       id="clipPath236"><path
         d="M 0,1080 H 1920 V 0 H 0 Z"
         id="path234"
         inkscape:connector-curvature="0" /></clipPath><clipPath
       clipPathUnits="userSpaceOnUse"
       id="clipPath244"><path
         d="m 590.582,523.299 h 161.27 v -43.308 h -161.27 z"
         id="path242"
         inkscape:connector-curvature="0" /></clipPath><clipPath
       clipPathUnits="userSpaceOnUse"
       id="clipPath248"><path
         d="m 751.852,498.371 c -0.16,-0.53 -0.34,-1.05 -0.51,-1.57 -19.02,6.25 -39.33,9.62 -60.43,9.62 -35.64,0 -69.03,-9.63 -97.71,-26.43 -1.72,8.08 -2.62,16.441 -2.62,25.03 0,2.35 0.07,4.68 0.21,6.991 59.72,21.479 118.44,9.719 161.06,-13.641"
         id="path246"
         inkscape:connector-curvature="0" /></clipPath><clipPath
       clipPathUnits="userSpaceOnUse"
       id="clipPath252"><path
         d="M -32768,32767 H 32767 V -32768 H -32768 Z"
         id="path250"
         inkscape:connector-curvature="0" /></clipPath><linearGradient
       x1="0"
       y1="0"
       x2="1"
       y2="0"
       gradientUnits="userSpaceOnUse"
       gradientTransform="matrix(103,-2,-2,-103,599.60785,502.1427)"
       spreadMethod="pad"
       id="linearGradient258"><stop
         style="stop-opacity:0;stop-color:#ffffff"
         offset="0"
         id="stop254" /><stop
         style="stop-opacity:1;stop-color:#ffffff"
         offset="1"
         id="stop256" /></linearGradient><mask
       maskUnits="userSpaceOnUse"
       x="0"
       y="0"
       width="1"
       height="1"
       id="mask260"><g
         id="g270"><g
           clip-path="url(#clipPath252)"
           id="g268"><g
             id="g266"><g
               id="g264"><path
                 d="M -32768,32767 H 32767 V -32768 H -32768 Z"
                 style="fill:url(#linearGradient258);stroke:none"
                 id="path262"
                 inkscape:connector-curvature="0" /></g></g></g></g></mask><linearGradient
       x1="0"
       y1="0"
       x2="1"
       y2="0"
       gradientUnits="userSpaceOnUse"
       gradientTransform="matrix(103,-2,-2,-103,599.60785,502.1427)"
       spreadMethod="pad"
       id="linearGradient276"><stop
         style="stop-opacity:1;stop-color:#f19a2e"
         offset="0"
         id="stop272" /><stop
         style="stop-opacity:1;stop-color:#ed1c24"
         offset="1"
         id="stop274" /></linearGradient><clipPath
       clipPathUnits="userSpaceOnUse"
       id="clipPath302"><path
         d="m 683.702,624.691 h 73.8 v -125.74 h -73.8 z"
         id="path300"
         inkscape:connector-curvature="0" /></clipPath><clipPath
       clipPathUnits="userSpaceOnUse"
       id="clipPath306"><path
         d="m 752.032,498.951 c 1.41,11.731 1.08,23.88 -1.19,36.12 -7.33,39.52 -33.3,70.87 -67.14,86.66 8.54,1.94 17.43,2.96 26.55,2.96 2.29,0 4.56,-0.06 6.81,-0.19 24.8,-21.92 40.44,-53.98 40.44,-89.68 0,-12.5 -1.91,-24.55 -5.47,-35.87"
         id="path304"
         inkscape:connector-curvature="0" /></clipPath><clipPath
       clipPathUnits="userSpaceOnUse"
       id="clipPath310"><path
         d="M -32768,32767 H 32767 V -32768 H -32768 Z"
         id="path308"
         inkscape:connector-curvature="0" /></clipPath><linearGradient
       x1="0"
       y1="0"
       x2="1"
       y2="0"
       gradientUnits="userSpaceOnUse"
       gradientTransform="matrix(-70.999992,137,137,70.999992,745.51569,544.81177)"
       spreadMethod="pad"
       id="linearGradient316"><stop
         style="stop-opacity:0;stop-color:#ffffff"
         offset="0"
         id="stop312" /><stop
         style="stop-opacity:1;stop-color:#ffffff"
         offset="1"
         id="stop314" /></linearGradient><mask
       maskUnits="userSpaceOnUse"
       x="0"
       y="0"
       width="1"
       height="1"
       id="mask318"><g
         id="g328"><g
           clip-path="url(#clipPath310)"
           id="g326"><g
             id="g324"><g
               id="g322"><path
                 d="M -32768,32767 H 32767 V -32768 H -32768 Z"
                 style="fill:url(#linearGradient316);stroke:none"
                 id="path320"
                 inkscape:connector-curvature="0" /></g></g></g></g></mask><linearGradient
       x1="0"
       y1="0"
       x2="1"
       y2="0"
       gradientUnits="userSpaceOnUse"
       gradientTransform="matrix(-70.999992,137,137,70.999992,745.51569,544.81177)"
       spreadMethod="pad"
       id="linearGradient334"><stop
         style="stop-opacity:1;stop-color:#f19a2e"
         offset="0"
         id="stop330" /><stop
         style="stop-opacity:1;stop-color:#ed1c24"
         offset="1"
         id="stop332" /></linearGradient><clipPath
       clipPathUnits="userSpaceOnUse"
       id="clipPath360"><path
         d="m 1070.701,333.617 h 365.125 v 456.407 h -365.125 z"
         id="path358"
         inkscape:connector-curvature="0" /></clipPath><linearGradient
       inkscape:collect="always"
       xlink:href="#linearGradient134"
       id="linearGradient1221"
       gradientUnits="userSpaceOnUse"
       gradientTransform="matrix(31.999998,-112,-112,-31.999998,691.0976,522.26282)"
       x1="0"
       y1="0"
       x2="1"
       y2="0"
       spreadMethod="pad" /><linearGradient
       inkscape:collect="always"
       xlink:href="#linearGradient160"
       id="linearGradient1223"
       gradientUnits="userSpaceOnUse"
       gradientTransform="matrix(-5,77,77,5,773.09357,415.44901)"
       x1="0"
       y1="0"
       x2="1"
       y2="0"
       spreadMethod="pad" /><linearGradient
       inkscape:collect="always"
       xlink:href="#linearGradient180"
       id="linearGradient1225"
       gradientUnits="userSpaceOnUse"
       gradientTransform="matrix(-13,-121,-121,13,736.94165,717.80762)"
       x1="0"
       y1="0"
       x2="1"
       y2="0"
       spreadMethod="pad" /><linearGradient
       inkscape:collect="always"
       xlink:href="#linearGradient206"
       id="linearGradient1227"
       gradientUnits="userSpaceOnUse"
       gradientTransform="matrix(-156,151,151,156,799.92212,521.71143)"
       x1="0"
       y1="0"
       x2="1"
       y2="0"
       spreadMethod="pad" /><linearGradient
       inkscape:collect="always"
       xlink:href="#linearGradient226"
       id="linearGradient1229"
       gradientUnits="userSpaceOnUse"
       gradientTransform="matrix(47.999912,-97.999825,-97.999825,-47.999912,635.20746,603.263)"
       x1="0"
       y1="0"
       x2="1"
       y2="0"
       spreadMethod="pad" /></defs><sodipodi:namedview
     pagecolor="#ffffff"
     bordercolor="#666666"
     borderopacity="1"
     objecttolerance="10"
     gridtolerance="10"
     guidetolerance="10"
     inkscape:pageopacity="0"
     inkscape:pageshadow="2"
     inkscape:window-width="1366"
     inkscape:window-height="712"
     id="namedview4"
     showgrid="false"
     showborder="true"
     inkscape:zoom="0.61111111"
     inkscape:cx="105.27106"
     inkscape:cy="249.64969"
     inkscape:window-x="0"
     inkscape:window-y="0"
     inkscape:window-maximized="1"
     inkscape:current-layer="g10" /><g
     id="g10"
     inkscape:groupmode="layer"
     inkscape:label="Golden Ratio #3"
     transform="matrix(1.3333333,0,0,-1.3333333,0,530)"><g
       id="g1179"
       transform="matrix(0.73248394,0,0,0.73248394,-317.94219,-224.18727)"
       style="stroke-width:1.36521769"><g
         clip-path="url(#clipPath124)"
         id="g1177"
         style="stroke-width:1.36521769"><g
           id="g1175"
           style="stroke-width:1.36521769"><g
             id="g1173"
             style="stroke-width:1.36521769"><path
               inkscape:connector-curvature="0"
               id="path1171"
               style="fill:url(#linearGradient1221);stroke:none;stroke-width:1.36521769"
               d="m 593.201,479.995 c 5.429,-25.509 18.974,-48.006 37.82,-64.661 v 0 c 21.098,-18.672 48.85,-29.995 79.236,-29.995 v 0 c 10.836,0 21.337,1.44 31.317,4.139 v 0 c 35.229,9.525 64.011,34.731 78.391,67.673 v 0 c -25.912,26.359 -74.878,49.134 -129.674,49.131 v 0 c -31.528,-0.002 -64.996,-7.546 -97.09,-26.287" /></g></g></g></g><g
       id="g1189"
       transform="matrix(0.73248394,0,0,0.73248394,-317.94219,-224.18727)"
       style="stroke-width:1.36521769"><g
         clip-path="url(#clipPath144)"
         id="g1187"
         style="stroke-width:1.36521769"><g
           id="g1185"
           style="stroke-width:1.36521769"><g
             id="g1183"
             style="stroke-width:1.36521769"><path
               inkscape:connector-curvature="0"
               id="path1181"
               style="fill:url(#linearGradient1223);stroke:none;stroke-width:1.36521769"
               d="m 722.111,439.488 c 0,-19.278 7.38,-36.843 19.463,-50.01 v 0 c 35.229,9.525 64.011,34.731 78.391,67.673 v 0 c -19.679,17.599 -42.966,31.242 -68.628,39.652 v 0 c -0.476,0.162 -0.953,0.313 -1.441,0.455 v 0 c -16.937,-13.546 -27.785,-34.385 -27.785,-57.77" /></g></g></g></g><g
       id="g1199"
       transform="matrix(0.73248394,0,0,0.73248394,-317.94219,-224.18727)"
       style="stroke-width:1.36521769"><g
         clip-path="url(#clipPath170)"
         id="g1197"
         style="stroke-width:1.36521769"><g
           id="g1195"
           style="stroke-width:1.36521769"><g
             id="g1193"
             style="stroke-width:1.36521769"><path
               inkscape:connector-curvature="0"
               id="path1191"
               style="fill:url(#linearGradient1225);stroke:none;stroke-width:1.36521769"
               d="m 653.246,653.368 c 0.185,-0.022 0.368,-0.044 0.542,-0.076 v 0 c 9.481,2.416 19.418,3.706 29.659,3.706 v 0 c 51.864,0 96.022,-32.997 112.634,-79.139 v 0 c 4.595,16.526 7.044,33.93 7.044,51.918 v 0 c 0,54.843 -22.8,104.355 -59.438,139.584 v 0 c -0.032,-55.97 -38.502,-102.968 -90.441,-115.993" /></g></g></g></g><g
       id="g1209"
       transform="matrix(0.73248394,0,0,0.73248394,-317.94219,-224.18727)"
       style="stroke-width:1.36521769"><g
         clip-path="url(#clipPath190)"
         id="g1207"
         style="stroke-width:1.36521769"><g
           id="g1205"
           style="stroke-width:1.36521769"><g
             id="g1203"
             style="stroke-width:1.36521769"><path
               inkscape:connector-curvature="0"
               id="path1201"
               style="fill:url(#linearGradient1227);stroke:none;stroke-width:1.36521769"
               d="M 653.788,653.292 C 712.337,645.49 757.503,595.36 757.503,534.676 v 0 c 0,-12.549 -1.929,-24.642 -5.504,-36 v 0 c 20.449,22.215 35.771,49.242 44.082,79.183 v 0 c -16.612,46.142 -60.77,79.139 -112.634,79.139 v 0 c -10.241,0 -20.178,-1.29 -29.659,-3.706" /></g></g></g></g><g
       id="g1219"
       transform="matrix(0.73248394,0,0,0.73248394,-317.94219,-224.18727)"
       style="stroke-width:1.36521769"><g
         clip-path="url(#clipPath216)"
         id="g1217"
         style="stroke-width:1.36521769"><g
           id="g1215"
           style="stroke-width:1.36521769"><g
             id="g1213"
             style="stroke-width:1.36521769"><path
               inkscape:connector-curvature="0"
               id="path1211"
               style="fill:url(#linearGradient1229);stroke:none;stroke-width:1.36521769"
               d="m 683.702,621.732 c -51.11,-11.571 -89.82,-55.87 -92.91,-109.72 v 0 c -0.14,-2.31 -0.21,-4.641 -0.21,-6.991 v 0 c 0,-8.589 0.901,-16.95 2.62,-25.029 v 0 c 28.68,16.799 62.07,26.429 97.71,26.429 v 0 c 21.101,0 41.41,-3.37 60.43,-9.62 v 0 c 0.171,0.52 0.351,1.039 0.51,1.57 v 0 c 0.06,0.19 0.12,0.391 0.18,0.58 v 0 c 3.56,11.32 5.47,23.37 5.47,35.87 v 0 c 0,35.701 -15.64,67.76 -40.44,89.68 v 0 c -2.25,0.13 -4.52,0.191 -6.81,0.191 v 0 c -9.12,0 -18.01,-1.021 -26.55,-2.96" /></g></g></g></g></g></svg>