<svg height="303" viewBox="0 0 300 303" width="300" xmlns="http://www.w3.org/2000/svg" xmlns:xlink="http://www.w3.org/1999/xlink"><linearGradient id="a" gradientUnits="userSpaceOnUse" x1="150" x2="150" y1="0" y2="300"><stop offset="0" stop-color="#806a6a"/><stop offset="1" stop-color="#665654"/></linearGradient><clipPath id="b"><path d="m150 300c82.84 0 150-67.16 150-150s-67.16-150-150-150-150 67.16-150 150 67.16 150 150 150z"/></clipPath><linearGradient id="c" gradientUnits="userSpaceOnUse" x1="150" x2="150" y1="303" y2="190"><stop offset="0" stop-color="#ffc9b3"/><stop offset="1" stop-color="#ffd2c2"/></linearGradient><linearGradient id="d" gradientUnits="userSpaceOnUse" x1="175.748" x2="131.215" y1="107.708" y2="223.562"><stop offset="0" stop-color="#eb915e"/><stop offset="1" stop-color="#f5a571"/></linearGradient><clipPath id="e"><path d="m174 202s-12.77 7-24.51 7c-11.75 0-23.49-7-23.49-7v-22c-2.99.53-5.29.45-7.64.45-23.99 0-33.04-34.94-28.36-77.45 3 0 10 0 20-14-2.5 19.5 26.5 16.5 37.5 1-5.5 18.5 9 31 21.5 23.5 24.51-14.71 30.02 30.13 5 30.5z"/></clipPath><linearGradient id="f" gradientUnits="userSpaceOnUse" x1="152.298" x2="144.319" y1="169.852" y2="190.609"><stop offset="0" stop-color="#e68349"/><stop offset="1" stop-color="#f09960"/></linearGradient><linearGradient id="g" gradientUnits="userSpaceOnUse" x1="150" x2="150" y1="190" y2="225.5"><stop offset="0" stop-color="#130027"/><stop offset="1" stop-color="#130017"/></linearGradient><path d="m150 300c82.84 0 150-67.16 150-150s-67.16-150-150-150-150 67.16-150 150 67.16 150 150 150z" fill="url(#a)"/><g clip-path="url(#b)"><path d="m222.5 159.5c8.11-26.94 13.11-73-21-104.5-26.07-24.07-96.5-26.5-121 26-4.09 8.76 1.5 22.5 12.5 22 4.32-.2 7 13.5 9.5 22-3.5 34.5-34.68 35.14-50.5 61.5-19.5 32.5 4.5 80.5 62 80.5s90.46-47.6 108.5-107.5z" fill="#fff"/><path d="m242 238c7.33 14 11 65 11 65h-206s3.67-51 11-65c11-21 92-48 92-48s81 27 92 48z" fill="url(#c)"/><path d="m174 202s-12.77 7-24.51 7c-11.75 0-23.49-7-23.49-7v-22c-2.99.53-5.29.45-7.64.45-23.99 0-33.04-34.94-28.36-77.45 3 0 10 0 20-14-2.5 19.5 26.5 16.5 37.5 1-5.5 18.5 9 31 21.5 23.5 24.51-14.71 30.02 30.13 5 30.5z" fill="url(#d)"/><g clip-path="url(#e)"><path d="m126 180c20-3.5 35-13.5 35-13.5s-12.5 21.5-35 21.5z" fill="url(#f)" opacity=".6"/></g><path d="m150.03 207.97c7.23-.32 23.97-3.86 23.97-11.51v-6.46c1.83 0 7.09 4.33 9.79 8 10.67 14.5-1.17 27.5-10.83 27.5-12.18 0-20.26-10.18-22.96-15.08-2.7 4.9-10.78 15.08-22.96 15.08-9.66 0-21.5-13-10.83-27.5 2.7-3.67 7.96-8 9.79-8v6.46c0 7.65 17.19 11.19 24.03 11.51z" fill="url(#g)"/></g></svg>