<svg height="305" viewBox="0 0 301 305" width="301" xmlns="http://www.w3.org/2000/svg" xmlns:xlink="http://www.w3.org/1999/xlink"><linearGradient id="a" gradientUnits="userSpaceOnUse" x1="151" x2="151" y1="301" y2="1"><stop offset="0" stop-color="#ffc9b3"/><stop offset="1" stop-color="#ffd2c2"/></linearGradient><clipPath id="b"><path d="m151 301c82.84 0 150-67.16 150-150s-67.16-150-150-150-150 67.16-150 150 67.16 150 150 150z"/></clipPath><linearGradient id="c" gradientUnits="userSpaceOnUse" x1="130.338" x2="136.423" y1="211.929" y2="37.68"><stop offset="0" stop-color="#e6864e"/><stop offset="1" stop-color="#e67240"/></linearGradient><linearGradient id="d" gradientUnits="userSpaceOnUse" x1="123.79" x2="123.79" y1="41.754" y2="117.239"><stop offset="0" stop-color="#1d0024"/><stop offset="1" stop-color="#100014"/></linearGradient><linearGradient id="e" gradientUnits="userSpaceOnUse" x1="157.861" x2="157.861" y1="80" y2="239.138"><stop offset="0" stop-color="#ffe0cc"/><stop offset="1" stop-color="#ffeadb"/></linearGradient><clipPath id="f"><path d="m126 195c0-9-.31-53.39-.29-54.14-24.71 3.64-24.21-43.36.79-31.86 5.5 3.5 21 0 19.5-29 27 29 58.35-4.82 61.03 22.74 3.68 37.63-.02 77.02-23.41 77.02-2.23 0-4.78-.25-7.62-.76v16c0 10 18 15 18 15s-31.09 29.3-44 29.14-42-29.14-42-29.14 18-5 18-15z"/></clipPath><linearGradient id="g" gradientUnits="userSpaceOnUse" x1="151" x2="151" y1="205" y2="305"><stop offset="0" stop-color="#130027"/><stop offset="1" stop-color="#130017"/></linearGradient><path d="m151 301c82.84 0 150-67.16 150-150s-67.16-150-150-150-150 67.16-150 150 67.16 150 150 150z" fill="url(#a)"/><g clip-path="url(#b)"><path d="m124.27 209.95c8.66-14.4 28.55-42.02 75.91-80.82 71.46-58.56 4-112.1-68.46-83.57-7.75 3.05-29.23-9.17-49.13 3.71-12.83 8.3-7.84 14.8-12.83 21.31-5 6.51-24.27 6.13-28.49 23.02-2.5 10.01 4.42 20.49 3.5 28.03-.93 7.53-8.23 14.32-8.58 24.27-.61 17.67 13.2 32.5 30.85 33.12.09 17.19 13.69 31.42 30.98 32.03 5.51.19 10.75-1.03 15.37-3.33 4.72 4.35 8.78 5.72 10.88 2.23z" fill="url(#c)"/><path d="m142 42c-12.32 7.9-27.55 33.81-20.86 68.59 1.45 7.59-3.1 9.86-7 .5-11.77-28.24-13.14-53.71 6.99-65.89 3.51-2.11 5.51-.4 8.01-.61 4.75-.39 11.15-3.76 12.86-2.59z" fill="url(#d)"/><path d="m126 195c0-9-.31-53.39-.29-54.14-24.71 3.64-24.21-43.36.79-31.86 5.5 3.5 21 0 19.5-29 27 29 58.35-4.82 61.03 22.74 3.68 37.63-.02 77.02-23.41 77.02-2.23 0-4.78-.25-7.62-.76v16c0 10 18 15 18 15s-31.09 29.3-44 29.14-42-29.14-42-29.14 18-5 18-15z" fill="url(#e)"/><g clip-path="url(#f)"><path d="m176 179c-20.32-4.41-34.63-15.1-34.63-15.1s8.63 21.1 34.6 25.1z" fill="#ffdbc9"/></g><path d="m243 240c7.26 16.12 11 65 11 65h-206s3.74-48.88 11-65c6.36-14.12 48.24-30.34 60.51-35 7.09 7.93 17.25 13 31.49 13s24.4-5.07 31.49-13c12.27 4.66 54.15 20.88 60.51 35z" fill="url(#g)"/></g></svg>