<svg height="301" viewBox="0 0 301 301" width="301" xmlns="http://www.w3.org/2000/svg" xmlns:xlink="http://www.w3.org/1999/xlink"><linearGradient id="a" gradientUnits="userSpaceOnUse" x1="151" x2="151" y1="0" y2="300"><stop offset="0" stop-color="#1d0024"/><stop offset="1" stop-color="#100014"/></linearGradient><clipPath id="b"><path d="m151 300c82.84 0 150-67.16 150-150s-67.16-150-150-150-150 67.16-150 150 67.16 150 150 150z"/></clipPath><linearGradient id="c" gradientUnits="userSpaceOnUse" x1="151" x2="151" y1="300" y2="187"><stop offset="0" stop-color="#e6864e"/><stop offset="1" stop-color="#e67240"/></linearGradient><linearGradient id="d" gradientUnits="userSpaceOnUse" x1="161.35" x2="161.35" y1="90.683" y2="206"><stop offset="0" stop-color="#f7b186"/><stop offset="1" stop-color="#ffc299"/></linearGradient><linearGradient id="e" gradientUnits="userSpaceOnUse" x1="151" x2="151" y1="222.5" y2="187"><stop offset="0" stop-color="#fcf2eb"/><stop offset="1" stop-color="#fff9f5"/></linearGradient><path d="m151 300c82.84 0 150-67.16 150-150s-67.16-150-150-150-150 67.16-150 150 67.16 150 150 150z" fill="url(#a)"/><g clip-path="url(#b)"><path d="m243 235c7.33 14 11 65 11 65h-206s3.67-51 11-65c11-21 92-48 92-48s81 27 92 48z" fill="url(#c)"/><path d="m236.47 175.41-162.46-19.63c-8.01-42.52 1.49-69.31 28.5-80.37 12.49-40.91 61.09-37.58 74.86-34.25 46.88 11.35 66.58 56.1 59.1 134.25z" fill="#fff"/><path d="m127 199v-60c-25.02-.37-20.14-43.73 5-30.5 4.5 2 16-3.5 12-17 27 20 64.62-15.1 67 6.5 4.68 42.51-4.37 77.45-28.36 77.45-2.35 0-4.65.08-7.64-.45v24c-7.83 4.67-15.66 7-23.49 7s-16-2.33-24.51-7z" fill="url(#d)"/><path d="m175 175v8c-11 0-26.67-7.17-35-21.5 10 6.67 21.67 11.17 35 13.5z" fill="#fa8b54"/><path d="m150.97 204.97c6.84-.32 24.03-3.86 24.03-11.51v-6.46c1.83 0 7.09 4.33 9.79 8 10.67 14.5-1.17 27.5-10.83 27.5-12.18 0-20.26-10.18-22.96-15.08-2.7 4.9-10.78 15.08-22.96 15.08-9.66 0-21.5-13-10.83-27.5 2.7-3.67 7.96-8 9.79-8v6.46c0 7.65 16.74 11.19 23.97 11.51z" fill="url(#e)"/></g></svg>