<svg height="304" viewBox="0 0 301 304" width="301" xmlns="http://www.w3.org/2000/svg" xmlns:xlink="http://www.w3.org/1999/xlink"><linearGradient id="a" gradientUnits="userSpaceOnUse" x1="151" x2="151" y1="300" y2="0"><stop offset="0" stop-color="#ffc9b3"/><stop offset="1" stop-color="#ffd2c2"/></linearGradient><clipPath id="b"><path d="m151 300c82.84 0 150-67.16 150-150s-67.16-150-150-150-150 67.16-150 150 67.16 150 150 150z"/></clipPath><linearGradient id="c"><stop offset="0" stop-color="#130027"/><stop offset="1" stop-color="#130017"/></linearGradient><linearGradient id="d" gradientUnits="userSpaceOnUse" x1="137.879" x2="137.879" xlink:href="#c" y1="38.599" y2="267"/><linearGradient id="e" gradientUnits="userSpaceOnUse" x1="151" x2="151" y1="304" y2="190"><stop offset="0" stop-color="#e6864e"/><stop offset="1" stop-color="#e67240"/></linearGradient><linearGradient id="f" gradientUnits="userSpaceOnUse" x1="140.544" x2="140.544" y1="89" y2="209"><stop offset="0" stop-color="#ffe0cc"/><stop offset="1" stop-color="#ffeadb"/></linearGradient><clipPath id="g"><path d="m175 202s-12.77 7-24.51 7c-11.75 0-23.49-7-23.49-7v-22c-2.99.53-5.29.45-7.64.45-23.99 0-33.04-34.94-28.36-77.45 3 0 10 0 20-14-2.5 19.5 26.5 16.5 37.5 1-5.5 18.5 9 31 21.5 23.5 24.51-14.71 30.02 30.13 5 30.5z"/></clipPath><linearGradient id="h" gradientUnits="userSpaceOnUse" x1="151" x2="151" xlink:href="#c" y1="232" y2="280"/><path d="m151 300c82.84 0 150-67.16 150-150s-67.16-150-150-150-150 67.16-150 150 67.16 150 150 150z" fill="url(#a)"/><g clip-path="url(#b)"><path d="m223.5 159.5c8.11-26.94 13.11-73-21-104.5-26.07-24.07-96.5-26.5-121 26-4.09 8.76 1.5 22.5 12.5 22 4.32-.2 7 13.5 9.5 22-3.5 34.5-34.68 35.14-50.5 61.5-19.5 32.5 4.5 80.5 62 80.5s90.46-47.6 108.5-107.5z" fill="url(#d)"/><path d="m243 238.42c7.33 14.13 11 65.58 11 65.58h-206s3.67-51.45 11-65.58c11-21.18 92-48.42 92-48.42s81 27.24 92 48.42z" fill="url(#e)"/><path d="m175 202s-12.77 7-24.51 7c-11.75 0-23.49-7-23.49-7v-22c-2.99.53-5.29.45-7.64.45-23.99 0-33.04-34.94-28.36-77.45 3 0 10 0 20-14-2.5 19.5 26.5 16.5 37.5 1-5.5 18.5 9 31 21.5 23.5 24.51-14.71 30.02 30.13 5 30.5z" fill="url(#f)"/><g clip-path="url(#g)"><path d="m127 180c20-3.5 35-13.5 35-13.5s-12.5 21.5-35 21.5z" fill="#ffd7b8" opacity=".784"/></g><path d="m151.03 207.97c7.23-.32 23.97-3.86 23.97-11.51v-6.46c1.83 0 7.09 4.33 9.79 8 10.67 14.5-1.17 27.5-10.83 27.5-12.18 0-20.26-10.18-22.96-15.08-2.7 4.9-10.78 15.08-22.96 15.08-9.66 0-21.5-13-10.83-27.5 2.7-3.67 7.96-8 9.79-8v6.46c0 7.65 17.19 11.19 24.03 11.51z" fill="#fff"/><path d="m151 240c2.21 0 4-1.79 4-4s-1.79-4-4-4-4 1.79-4 4 1.79 4 4 4zm0 20c2.21 0 4-1.79 4-4s-1.79-4-4-4-4 1.79-4 4 1.79 4 4 4zm0 20c2.21 0 4-1.79 4-4s-1.79-4-4-4-4 1.79-4 4 1.79 4 4 4z" fill="url(#h)"/></g></svg>