<svg height="309" viewBox="0 0 300 309" width="300" xmlns="http://www.w3.org/2000/svg" xmlns:xlink="http://www.w3.org/1999/xlink"><linearGradient id="a" gradientUnits="userSpaceOnUse" x1="150" x2="150" y1="0" y2="300"><stop offset="0" stop-color="#806a6a"/><stop offset="1" stop-color="#665654"/></linearGradient><clipPath id="b"><path d="m150 300c82.84 0 150-67.16 150-150s-67.16-150-150-150-150 67.16-150 150 67.16 150 150 150z"/></clipPath><linearGradient id="c"><stop offset="0" stop-color="#1d0024"/><stop offset="1" stop-color="#100014"/></linearGradient><linearGradient id="d" gradientUnits="userSpaceOnUse" x1="190.666" x2="190.666" xlink:href="#c" y1="25.002" y2="78.966"/><linearGradient id="e" gradientUnits="userSpaceOnUse" x1="143.948" x2="143.948" xlink:href="#c" y1="39.634" y2="165.683"/><linearGradient id="f" gradientUnits="userSpaceOnUse" x1="142.319" x2="142.319" y1="88.5" y2="225"><stop offset="0" stop-color="#f7b186"/><stop offset="1" stop-color="#ffc299"/></linearGradient><linearGradient id="g" gradientUnits="userSpaceOnUse" x1="150" x2="150" y1="308.111" y2="195"><stop offset="0" stop-color="#fcf2eb"/><stop offset="1" stop-color="#fff9f5"/></linearGradient><linearGradient id="h" gradientUnits="userSpaceOnUse" x1="167.991" x2="167.991" xlink:href="#c" y1="64.003" y2="207.928"/><path d="m150 300c82.84 0 150-67.16 150-150s-67.16-150-150-150-150 67.16-150 150 67.16 150 150 150z" fill="url(#a)"/><g clip-path="url(#b)"><path d="m160.86 49.7c-4-17.5 14.97-30.92 34.5-21.71 46 21.71 19.31 54.21 2.81 50.71s-33.31-11.5-37.31-29z" fill="url(#d)"/><path d="m172 160c-21.48 10.32-24.62 9.77-72-29-71.5-58.5-4-112 68.5-83.5 78.5 34.5 52.2 89.1 3.5 112.5z" fill="url(#e)"/><path d="m174 201c-7.33 16-16.67 24-24 24s-16.67-8-24-24v-20s-3.26.1-5.5 0c-23.39-1-31.21-38.63-27.54-76.26 2.69-27.56 26.04 10.26 64.04-16.24-1.5 29 11 26 16.5 22.5 25-11.5 25.5 35.5.79 31.86.01.5-.09 19.88-.29 58.14z" fill="url(#f)"/><path d="m126 181c9-.67 20.21-5.7 33.63-15.1-4.11 14.16-15.32 22.53-33.63 25.1z" fill="#ff9768"/><path d="m117.73 206.82s1.51-10.42 5.05-11.31 24.21-1 24.23 3c.01.73.72 8.6 3.07 8.6 2.36 0 2.97-7.87 2.97-8.6.02-4 20.58-3.85 24.24-3 3.65.84 5.03 11.32 5.03 11.32s53.99 25.43 59.68 36.28c4.89 9.33 8.56 31 11 65h-206c2.44-34 6.11-55.67 11-65 5.68-10.85 59.73-36.29 59.73-36.29z" fill="url(#g)"/><path d="m150 239c2.21 0 4-1.79 4-4s-1.79-4-4-4-4 1.79-4 4 1.79 4 4 4zm0 20c2.21 0 4-1.79 4-4s-1.79-4-4-4-4 1.79-4 4 1.79 4 4 4zm0 20c2.21 0 4-1.79 4-4s-1.79-4-4-4-4 1.79-4 4 1.79 4 4 4z" fill="#664f4d"/><path d="m160.59 79.43c-16 40-7 59.5 5.5 83s-3 45.5-3 45.5 18-11.5 18-37-18-41.5-3-62.5-1.5-69-17.5-29z" fill="url(#h)"/></g></svg>