<svg height="304" viewBox="0 0 301 304" width="301" xmlns="http://www.w3.org/2000/svg" xmlns:xlink="http://www.w3.org/1999/xlink"><linearGradient id="a" gradientUnits="userSpaceOnUse" x1="151" x2="151" y1="300" y2="0"><stop offset="0" stop-color="#ffc9b3"/><stop offset="1" stop-color="#ffd2c2"/></linearGradient><clipPath id="b"><path d="m151 300c-82.84 0-150-67.16-150-150s67.16-150 150-150 150 67.16 150 150-67.16 150-150 150z"/></clipPath><linearGradient id="c" gradientUnits="userSpaceOnUse" x1="155.23" x2="155.23" y1="72.36" y2="229"><stop offset="0" stop-color="#e6864e"/><stop offset="1" stop-color="#eb965e"/></linearGradient><linearGradient id="d" gradientUnits="userSpaceOnUse" x1="173.762" x2="164.855" y1="165.742" y2="188.912"><stop offset="0" stop-color="#e07a3f"/><stop offset="1" stop-color="#eb9154"/></linearGradient><linearGradient id="e"><stop offset="0" stop-color="#1d0024"/><stop offset="1" stop-color="#100014"/></linearGradient><linearGradient id="f" gradientUnits="userSpaceOnUse" x1="151" x2="151" xlink:href="#e" y1="202" y2="303.308"/><linearGradient id="g" gradientUnits="userSpaceOnUse" x1="158.985" x2="158.985" xlink:href="#e" y1="30.001" y2="150.003"/><path d="m151 300c-82.84 0-150-67.16-150-150s67.16-150 150-150 150 67.16 150 150-67.16 150-150 150z" fill="url(#a)"/><g clip-path="url(#b)"><path d="m182 174v12c0 16 23 23 23 23s-26.5 20-54 20-54-20-54-20 23.18-7 23-23-.06-25.4-.18-52.81c-14.33-18.58-13.41-31.05-5.58-39.81 26.26-29.38 97.76-19.38 97.76-19.38s6.67 71.99-8.5 93c-6.5 9-21.5 7-21.5 7z" fill="url(#c)"/><path d="m182 174c-22-2.5-35-12-35-12s11 18.5 35 24z" fill="url(#d)" opacity=".6"/><path d="m256 239.31c9.52 19.35 15 64 15 64h-240s5.48-44.65 15-64 65.1-37.3 65.1-37.3c10.71 21.99 69.51 21.99 79.77-.01 0 0 55.61 17.95 65.13 37.31z" fill="url(#f)"/><path d="m151 242c2.21 0 4-1.79 4-4s-1.79-4-4-4-4 1.79-4 4 1.79 4 4 4zm0 20c2.21 0 4-1.79 4-4s-1.79-4-4-4-4 1.79-4 4 1.79 4 4 4zm0 20c2.21 0 4-1.79 4-4s-1.79-4-4-4-4 1.79-4 4 1.79 4 4 4z" fill="#fff"/><path d="m132.15 103.21c-3.18-2.73-7.04-4.57-12.5-1.73-12.95 6.72-3.15 32.52 8.35 32.52 3 0 4.49 9.42-8.87 16 0-10.5-16-36.5-17.39-60.17-16.11-5.99-12.11-29.98-1.05-29.98-1.77-21.99 33.44-33.35 47.08-20.73 13.86-16.62 48.86-8.12 50.98 6.3 24.06-12.85 39.88 24.08 17.35 38.42-9.27 5.89-30.97 8.14-62.28 8.14-4.72 0-7.37 1.17-6.05 7.02 2.56 11.33-3.38 18.46-15.62 4.21z" fill="url(#g)"/></g></svg>