<svg height="309" viewBox="0 0 301 309" width="301" xmlns="http://www.w3.org/2000/svg" xmlns:xlink="http://www.w3.org/1999/xlink"><linearGradient id="a" gradientUnits="userSpaceOnUse" x1="151" x2="151" y1="301" y2="1"><stop offset="0" stop-color="#ffc9b3"/><stop offset="1" stop-color="#ffd2c2"/></linearGradient><clipPath id="b"><path d="m151 301c82.84 0 150-67.16 150-150s-67.16-150-150-150-150 67.16-150 150 67.16 150 150 150z"/></clipPath><linearGradient id="c" gradientUnits="userSpaceOnUse" x1="161.799" x2="161.799" y1="76" y2="207.772"><stop offset="0" stop-color="#e6864e"/><stop offset="1" stop-color="#eb965e"/></linearGradient><linearGradient id="d"><stop offset="0" stop-color="#130027"/><stop offset="1" stop-color="#130017"/></linearGradient><linearGradient id="e" gradientUnits="userSpaceOnUse" x1="151" x2="151" xlink:href="#d" y1="206.692" y2="308.308"/><linearGradient id="f" gradientUnits="userSpaceOnUse" x1="151" x2="151" y1="305" y2="208"><stop offset="0" stop-color="#e6864e"/><stop offset="1" stop-color="#e67240"/></linearGradient><linearGradient id="g" gradientUnits="userSpaceOnUse" x1="158.851" x2="158.851" xlink:href="#d" y1="32.997" y2="182"/><path d="m151 301c82.84 0 150-67.16 150-150s-67.16-150-150-150-150 67.16-150 150 67.16 150 150 150z" fill="url(#a)"/><g clip-path="url(#b)"><path d="m183 177v22c0 2.18-32 8.77-32 8.77s-32-5.66-32-8.77c0-5.88.12-35.4 0-62.81-14.33-18.58-14.33-30.19-3-42.19s92-18 92-18 6.05 58.21 7 74c.38 6.35 4.5 27-11.5 27-9 0-20.5 0-20.5 0z" fill="url(#c)"/><path d="m183 175.12v12.04c-21.43-3.82-33.77-11.87-37-24.16 9.33 6.33 21.33 10.33 36 12 .33.04.67.08 1 .12z" fill="#f5c6a6"/><path d="m256 244.31c6.35 12.9 11.35 34.24 15 64h-240c3.65-29.77 8.65-51.1 15-64 6.32-12.86 65-37.61 65-37.61l80-.01s58.69 24.78 65 37.62z" fill="url(#e)"/><path d="m158 213 5 92h-24l5-92s4.67-5 7-5 7 5 7 5z" fill="url(#f)"/><path d="m159.01 231.62-15.53-8.98.52-9.64c3.11-3.33 5.44-5 7-5s3.89 1.67 7 5z" fill="#d24b24"/><path d="m151 207.99-10 18.01-31-19 9-13 32 11.82 32-11.82 9 13-31 19z" fill="#fff"/><path d="m132.02 106.21c-3.18-2.74-7.04-4.57-12.51-1.74-12.95 6.73-4.35 32.66 10.14 32.16 5-.18 2.71 9.79-10.65 16.37 0-10.5-16-36.5-17.4-60.17-16.1-6-12.1-29.98-1.04-29.98-1.77-22 33.44-33.35 47.07-20.73 13.87-16.62 48.87-8.12 50.98 6.29 24.07-12.84 39.89 24.09 17.36 38.42-9.28 5.9-30.97 8.15-62.28 8.15-15.03 0-6.39 35.17-1.69 46.52 6 14.5 39.5 16.5 50 15 8.2-1.17 12.5-4.5 13-6.5 7.5 20-2 32-17 32-25.5 0-51-7.5-55-26-3.18-14.72-3.01-38.48-10.98-49.79z" fill="url(#g)"/></g></svg>