<svg height="309" viewBox="0 0 301 309" width="301" xmlns="http://www.w3.org/2000/svg" xmlns:xlink="http://www.w3.org/1999/xlink"><linearGradient id="a" gradientUnits="userSpaceOnUse" x1="151" x2="151" y1="0" y2="300"><stop offset="0" stop-color="#1d0024"/><stop offset="1" stop-color="#100014"/></linearGradient><clipPath id="b"><path d="m151 300c82.84 0 150-67.16 150-150s-67.16-150-150-150-150 67.16-150 150 67.16 150 150 150z"/></clipPath><linearGradient id="c" gradientUnits="userSpaceOnUse" x1="151" x2="151" y1="195" y2="308"><stop offset="0" stop-color="#806a6a"/><stop offset="1" stop-color="#665654"/></linearGradient><clipPath id="d"><path d="m243 243c7.33 14 11 65 11 65h-206s3.67-51 11-65c11-21 92-48 92-48s81 27 92 48z"/></clipPath><linearGradient id="e"><stop offset="0" stop-color="#e6864e"/><stop offset="1" stop-color="#e67240"/></linearGradient><linearGradient id="f" gradientUnits="userSpaceOnUse" x1="191.526" x2="191.526" xlink:href="#e" y1="81.091" y2="28.002"/><clipPath id="g"><path d="m161.86 52.7c-4-17.5 14.97-30.92 34.5-21.71 46 21.71 18.64 52.01 1.64 50.01s-32.14-10.8-36.14-28.3z"/></clipPath><linearGradient id="h" gradientUnits="userSpaceOnUse" x1="144.948" x2="144.948" xlink:href="#e" y1="168.683" y2="42.634"/><linearGradient id="i" gradientUnits="userSpaceOnUse" x1="143.243" x2="143.243" y1="91.5" y2="212.994"><stop offset="0" stop-color="#ffd4b3"/><stop offset="1" stop-color="#ffdcc2"/></linearGradient><linearGradient id="j" gradientUnits="userSpaceOnUse" x1="170.991" x2="170.991" y1="199.928" y2="56.003"><stop offset="0" stop-color="#e6864e"/><stop offset="1" stop-color="#e57442"/></linearGradient><path d="m151 300c82.84 0 150-67.16 150-150s-67.16-150-150-150-150 67.16-150 150 67.16 150 150 150z" fill="url(#a)"/><g clip-path="url(#b)"><path d="m243 243c7.33 14 11 65 11 65h-206s3.67-51 11-65c11-21 92-48 92-48s81 27 92 48z" fill="url(#c)"/><g clip-path="url(#d)"><path d="m71 245c3.31 0 6-2.69 6-6s-2.69-6-6-6-6 2.69-6 6 2.69 6 6 6zm40 0c3.31 0 6-2.69 6-6s-2.69-6-6-6-6 2.69-6 6 2.69 6 6 6zm40 0c3.31 0 6-2.69 6-6s-2.69-6-6-6-6 2.69-6 6 2.69 6 6 6zm40 0c3.31 0 6-2.69 6-6s-2.69-6-6-6-6 2.69-6 6 2.69 6 6 6zm40 0c3.31 0 6-2.69 6-6s-2.69-6-6-6-6 2.69-6 6 2.69 6 6 6zm-180-20c3.31 0 6-2.69 6-6s-2.69-6-6-6-6 2.69-6 6 2.69 6 6 6zm40 0c3.31 0 6-2.69 6-6s-2.69-6-6-6-6 2.69-6 6 2.69 6 6 6zm120 0c3.31 0 6-2.69 6-6s-2.69-6-6-6-6 2.69-6 6 2.69 6 6 6zm40 0c3.31 0 6-2.69 6-6s-2.69-6-6-6-6 2.69-6 6 2.69 6 6 6zm-180 60c3.31 0 6-2.69 6-6s-2.69-6-6-6-6 2.69-6 6 2.69 6 6 6zm40 0c3.31 0 6-2.69 6-6s-2.69-6-6-6-6 2.69-6 6 2.69 6 6 6zm40 0c3.31 0 6-2.69 6-6s-2.69-6-6-6-6 2.69-6 6 2.69 6 6 6zm40 0c3.31 0 6-2.69 6-6s-2.69-6-6-6-6 2.69-6 6 2.69 6 6 6zm40 0c3.31 0 6-2.69 6-6s-2.69-6-6-6-6 2.69-6 6 2.69 6 6 6zm-180-20c3.31 0 6-2.69 6-6s-2.69-6-6-6-6 2.69-6 6 2.69 6 6 6zm40 0c3.31 0 6-2.69 6-6s-2.69-6-6-6-6 2.69-6 6 2.69 6 6 6zm40 0c3.31 0 6-2.69 6-6s-2.69-6-6-6-6 2.69-6 6 2.69 6 6 6zm40 0c3.31 0 6-2.69 6-6s-2.69-6-6-6-6 2.69-6 6 2.69 6 6 6zm40 0c3.31 0 6-2.69 6-6s-2.69-6-6-6-6 2.69-6 6 2.69 6 6 6zm40 0c3.31 0 6-2.69 6-6s-2.69-6-6-6-6 2.69-6 6 2.69 6 6 6zm-200 40c3.31 0 6-2.69 6-6s-2.69-6-6-6-6 2.69-6 6 2.69 6 6 6zm40 0c3.31 0 6-2.69 6-6s-2.69-6-6-6-6 2.69-6 6 2.69 6 6 6zm40 0c3.31 0 6-2.69 6-6s-2.69-6-6-6-6 2.69-6 6 2.69 6 6 6zm40 0c3.31 0 6-2.69 6-6s-2.69-6-6-6-6 2.69-6 6 2.69 6 6 6zm40 0c3.31 0 6-2.69 6-6s-2.69-6-6-6-6 2.69-6 6 2.69 6 6 6zm40 0c3.31 0 6-2.69 6-6s-2.69-6-6-6-6 2.69-6 6 2.69 6 6 6z" fill="#13001e" opacity=".4"/></g><path d="m161.86 52.7c-4-17.5 14.97-30.92 34.5-21.71 46 21.71 18.64 52.01 1.64 50.01s-32.14-10.8-36.14-28.3z" fill="url(#f)"/><g clip-path="url(#g)"><path d="m178.5 55.5s34 22 42.5 10c.88 5.01-3.16 19.16-9.5 19-18.98-.49-33-29-33-29z" fill="#e0713f" opacity=".6"/></g><path d="m173 163c-21.48 10.32-24.62 9.77-72-29-71.5-58.5-4-112 68.5-83.5 78.5 34.5 52.2 89.1 3.5 112.5z" fill="url(#h)"/><path d="m175 204c-7.33 12-40.67 12-48 0v-20s-3.26.1-5.5 0c-23.39-1-31.21-38.63-27.53-76.26 2.68-27.56 26.03 10.26 64.03-16.24-1.5 29 11 26 16.5 22.5 25-11.5 25.21 35.64.5 32z" fill="url(#i)"/><path d="m127 184c13.5-1 33.63-15.1 33.63-15.1s-9.63 20.6-33.63 24.1z" fill="#ffbb94"/><path d="m175 201.46v-6.46c1.83 0 7.09 4.33 9.79 8 10.67 14.5-1.17 27.5-10.83 27.5-12.18 0-20.26-10.18-22.96-15.08-2.7 4.9-10.78 15.08-22.96 15.08-9.66 0-21.5-13-10.83-27.5 2.7-3.67 7.96-8 9.79-8v6.46c0 7.65 16.74 11.19 23.97 11.51 6.84-.32 24.03-3.86 24.03-11.51z" fill="#fff9f5"/><path d="m163.59 71.43c-16 40-7 59.5 5.5 83s-3 45.5-3 45.5 18-11.5 18-37-18-41.5-3-62.5-1.5-69-17.5-29z" fill="url(#j)"/></g></svg>