<svg height="305" viewBox="0 0 300 305" width="300" xmlns="http://www.w3.org/2000/svg" xmlns:xlink="http://www.w3.org/1999/xlink"><linearGradient id="a"><stop offset="0" stop-color="#806a6a"/><stop offset="1" stop-color="#665654"/></linearGradient><linearGradient id="b" gradientUnits="userSpaceOnUse" x1="150" x2="150" xlink:href="#a" y1="0" y2="300"/><clipPath id="c"><path d="m150 300c82.84 0 150-67.16 150-150s-67.16-150-150-150-150 67.16-150 150 67.16 150 150 150z"/></clipPath><linearGradient id="d" gradientUnits="userSpaceOnUse" x1="145.122" x2="145.122" y1="49.058" y2="233.784"><stop offset="0" stop-color="#f7b186"/><stop offset="1" stop-color="#ffc299"/></linearGradient><clipPath id="e"><path d="m95 209.78c18.33 13.34 36.67 24 55 24s36.67-10.66 55-24c-15.11-4.6-22.78-11.46-23-20.59.01-1.63.02-3.94.03-8.28 0-.69 0-1.4 0-2.12.03-11.64.08-27 .15-42.6 14.33-18.58 9.07-40.36 4.58-39.81-5.51.66-53.22-44.61-62.37-46.92-9.15-2.32-32.39 5.16-36.39 26.04s-5.67 73.49 9.5 94.5c4.32 5.98 11.12 8.32 20.4 7.01.01 4.37.04 6.83.1 11.77-.12 9.55-7.79 16.41-23 21z"/></clipPath><linearGradient id="f"><stop offset="0" stop-color="#1d0024"/><stop offset="1" stop-color="#100014"/></linearGradient><linearGradient id="g" gradientUnits="userSpaceOnUse" x1="139.437" x2="139.437" xlink:href="#f" y1="33.392" y2="154.364"/><linearGradient id="h" gradientUnits="userSpaceOnUse" x1="150" x2="150" xlink:href="#f" y1="203" y2="304.308"/><linearGradient id="i" gradientUnits="userSpaceOnUse" x1="150" x2="150" xlink:href="#a" y1="205" y2="302"/><clipPath id="j"><path d="m157 210 5 92h-24l5-92s4.67-5 7-5 7 5 7 5z"/></clipPath><clipPath><path d="m158.14 228.69-15.73-9.08.59-9.61c3.11-3.33 5.44-5 7-5s3.89 1.67 7 5z"/></clipPath><path d="m150 300c82.84 0 150-67.16 150-150s-67.16-150-150-150-150 67.16-150 150 67.16 150 150 150z" fill="url(#b)"/><g clip-path="url(#c)"><path d="m95 209.78c18.33 13.34 36.67 24 55 24s36.67-10.66 55-24c-15.11-4.6-22.78-11.46-23-20.59.01-1.63.02-3.94.03-8.28 0-.69 0-1.4 0-2.12.03-11.64.08-27 .15-42.6 14.33-18.58 9.07-40.36 4.58-39.81-5.51.66-53.22-44.61-62.37-46.92-9.15-2.32-32.39 5.16-36.39 26.04s-5.67 73.49 9.5 94.5c4.32 5.98 11.12 8.32 20.4 7.01.01 4.37.04 6.83.1 11.77-.12 9.55-7.79 16.41-23 21z" fill="url(#d)"/><g clip-path="url(#e)"><path d="m118 177c22-2.5 36-12 36-12s-16 20-36 24z" fill="#fc9f6a"/></g><path d="m189.5 136.5c6.89-16.57 34.5-50.32 10.7-71.32-8-39-52.2-34.68-81.7-25.68-19.83 6.05-34.8 18-38 9-20 16.68-9.98 33 3.2 37.68 11.97 4.25 32.2 8.5 66.61 4.5 6.14-.71 4.86 18.11 8.14 20.15 4.93 3.05 8.75-16.15 22.26-10.38 13.51 5.76 5.49 32.49-9.01 32.49-5 0-7.5 13.74 6 20.24 9.8 4.82 7.32-5.91 11.8-16.68z" fill="url(#g)"/><path d="m255 240.31c9.52 19.35 15 64 15 64h-240s5.48-44.65 15-64 65.1-37.3 65.1-37.3c30.71 11.99 49.51 11.99 79.77-.01 0 0 55.61 17.95 65.13 37.31z" fill="url(#h)"/><path d="m157 210 5 92h-24l5-92s4.67-5 7-5 7 5 7 5z" fill="url(#i)"/><g clip-path="url(#j)"><path d="m158.14 228.69-15.73-9.08.59-9.61c3.11-3.33 5.44-5 7-5s3.89 1.67 7 5z" fill="#645050"/></g><path d="m151 203.19-33-12.19-9 13 31 19zm-2 0 33-12.19 9 13-31 19z" fill="#fff"/></g></svg>