<svg height="305" viewBox="0 0 301 305" width="301" xmlns="http://www.w3.org/2000/svg" xmlns:xlink="http://www.w3.org/1999/xlink"><linearGradient id="a" gradientUnits="userSpaceOnUse" x1="151" x2="151" y1="0" y2="300"><stop offset="0" stop-color="#1d0024"/><stop offset="1" stop-color="#100014"/></linearGradient><clipPath id="b"><path d="m151 300c82.84 0 150-67.16 150-150s-67.16-150-150-150-150 67.16-150 150 67.16 150 150 150z"/></clipPath><linearGradient id="c" gradientUnits="userSpaceOnUse" x1="146.122" x2="146.122" y1="49.058" y2="233.784"><stop offset="0" stop-color="#ffd4b3"/><stop offset="1" stop-color="#ffdcc2"/></linearGradient><clipPath id="d"><path d="m119 188.78v.43c-.12 9.12-7.79 15.98-23 20.57 18.33 13.34 36.67 24 55 24s36.67-10.66 55-24c-15.11-4.6-22.78-11.46-23-20.59.01-1.63.02-3.94.03-8.28 0-.69 0-1.4 0-2.12 1.1.15 1.01.05 0-.22.03-11.42.08-26.78.15-42.38 14.33-18.58 9.07-40.36 4.58-39.81-5.51.66-53.22-44.61-62.37-46.92-9.15-2.32-32.39 5.16-36.39 26.04s-5.67 73.49 9.5 94.5c4.32 5.98 11.12 8.32 20.4 7.01.01 4.37.04 6.83.1 11.77z"/></clipPath><linearGradient id="e"><stop offset="0" stop-color="#e6864e"/><stop offset="1" stop-color="#e67240"/></linearGradient><linearGradient id="f" gradientUnits="userSpaceOnUse" x1="140.437" x2="140.437" xlink:href="#e" y1="154.364" y2="33.392"/><linearGradient id="g" gradientUnits="userSpaceOnUse" x1="151" x2="151" xlink:href="#e" y1="304.308" y2="203"/><clipPath id="h"><path d="m256 240.31c9.52 19.35 15 64 15 64h-240s5.48-44.65 15-64 65.1-37.3 65.1-37.3c10.71 21.99 69.51 21.99 79.77-.01 0 0 55.61 17.95 65.13 37.31z"/></clipPath><linearGradient id="i" gradientUnits="userSpaceOnUse" x1="151" x2="151" y1="236" y2="284"><stop offset="0" stop-color="#f7b186"/><stop offset="1" stop-color="#ffc299"/></linearGradient><path d="m151 300c82.84 0 150-67.16 150-150s-67.16-150-150-150-150 67.16-150 150 67.16 150 150 150z" fill="url(#a)"/><g clip-path="url(#b)"><path d="m119 188.78v.43c-.12 9.12-7.79 15.98-23 20.57 18.33 13.34 36.67 24 55 24s36.67-10.66 55-24c-15.11-4.6-22.78-11.46-23-20.59.01-1.63.02-3.94.03-8.28 0-.69 0-1.4 0-2.12 1.1.15 1.01.05 0-.22.03-11.42.08-26.78.15-42.38 14.33-18.58 9.07-40.36 4.58-39.81-5.51.66-53.22-44.61-62.37-46.92-9.15-2.32-32.39 5.16-36.39 26.04s-5.67 73.49 9.5 94.5c4.32 5.98 11.12 8.32 20.4 7.01.01 4.37.04 6.83.1 11.77z" fill="url(#c)"/><g clip-path="url(#d)"><path d="m119 177c22-2.5 36-12 36-12s-15.14 20.12-36 24z" fill="#ffbe94"/></g><path d="m190.5 136.5c6.89-16.57 34.5-50.32 10.7-71.32-8-39-52.2-34.68-81.7-25.68-19.83 6.05-34.8 18-38 9-20 16.68-9.98 33 3.2 37.68 11.97 4.25 32.2 8.5 66.61 4.5 6.14-.71 4.86 18.11 8.14 20.15 4.93 3.05 8.75-16.15 22.26-10.38 13.51 5.76 5.49 32.49-9.01 32.49-5 0-7.5 13.74 6 20.24 9.8 4.82 7.32-5.91 11.8-16.68z" fill="url(#f)"/><path d="m256 240.31c9.52 19.35 15 64 15 64h-240s5.48-44.65 15-64 65.1-37.3 65.1-37.3c10.71 21.99 69.51 21.99 79.77-.01 0 0 55.61 17.95 65.13 37.31z" fill="url(#g)"/><g clip-path="url(#h)"><path d="m21 236h260v8h-260zm0 20h260v8h-260zm0 20h260v8h-260z" fill="url(#i)"/></g></g></svg>