<svg height="305" viewBox="0 0 301 305" width="301" xmlns="http://www.w3.org/2000/svg" xmlns:xlink="http://www.w3.org/1999/xlink"><linearGradient id="a" gradientUnits="userSpaceOnUse" x1="151" x2="151" y1="300" y2="0"><stop offset="0" stop-color="#ffc9b3"/><stop offset="1" stop-color="#ffd2c2"/></linearGradient><clipPath id="b"><path d="m151 300c82.84 0 150-67.16 150-150s-67.16-150-150-150-150 67.16-150 150 67.16 150 150 150z"/></clipPath><linearGradient id="c" gradientUnits="userSpaceOnUse" x1="146.122" x2="146.122" y1="49.058" y2="233.784"><stop offset="0" stop-color="#e6864e"/><stop offset="1" stop-color="#eb965e"/></linearGradient><clipPath id="d"><path d="m119 188.78c-.12 9.34-7.79 16.41-23 21 18.33 13.34 36.67 24 55 24s36.67-10.66 55-24c-15.11-4.6-22.78-11.46-23-20.59.01-1.63.11-37.4.18-53 14.33-18.58 9.07-40.36 4.58-39.81-5.51.66-53.22-44.61-62.37-46.92-9.15-2.32-32.39 5.16-36.39 26.04s-5.67 73.49 9.5 94.5c4.32 5.98 11.22 8.3 20.5 7 .01 4.37 0 11.78 0 11.78z"/></clipPath><linearGradient id="e" gradientUnits="userSpaceOnUse" x1="151" x2="151" y1="203" y2="304.308"><stop offset="0" stop-color="#1d0024"/><stop offset="1" stop-color="#100014"/></linearGradient><clipPath id="f"><path d="m256 240.31c9.52 19.35 15 64 15 64h-240s5.48-44.65 15-64 65.1-37.3 65.1-37.3c10.71 21.99 69.51 21.99 79.77-.01 0 0 55.61 17.95 65.13 37.31z"/></clipPath><path d="m151 300c82.84 0 150-67.16 150-150s-67.16-150-150-150-150 67.16-150 150 67.16 150 150 150z" fill="url(#a)"/><g clip-path="url(#b)"><path d="m119 188.78c-.12 9.34-7.79 16.41-23 21 18.33 13.34 36.67 24 55 24s36.67-10.66 55-24c-15.11-4.6-22.78-11.46-23-20.59.01-1.63.11-37.4.18-53 14.33-18.58 9.07-40.36 4.58-39.81-5.51.66-53.22-44.61-62.37-46.92-9.15-2.32-32.39 5.16-36.39 26.04s-5.67 73.49 9.5 94.5c4.32 5.98 11.22 8.3 20.5 7 .01 4.37 0 11.78 0 11.78z" fill="url(#c)"/><g clip-path="url(#d)"><path d="m119 177c22-2.5 36-12 36-12s-12 20-36 24z" fill="#db6f3d"/></g><path d="m190.5 136.5c6.89-16.57 34.5-50.32 10.7-71.32-8-39-52.2-34.68-81.7-25.68-19.83 6.05-34.8 18-38 9-20 16.68-9.98 33 3.2 37.68 11.97 4.25 32.2 8.5 66.61 4.5 6.14-.71 4.86 18.11 8.14 20.15 4.93 3.05 8.75-16.15 22.26-10.38 13.51 5.76 5.49 32.49-9.01 32.49-5 0-7.5 13.74 6 20.24 9.8 4.82 7.32-5.91 11.8-16.68z" fill="#fff"/><path d="m256 240.31c9.52 19.35 15 64 15 64h-240s5.48-44.65 15-64 65.1-37.3 65.1-37.3c10.71 21.99 69.51 21.99 79.77-.01 0 0 55.61 17.95 65.13 37.31z" fill="url(#e)"/><g clip-path="url(#f)"><path d="m21 236h260v8h-260zm0 20h260v8h-260zm0 20h260v8h-260z" fill="#6e5c5a"/></g></g></svg>