<svg height="309" viewBox="0 0 301 309" width="301" xmlns="http://www.w3.org/2000/svg" xmlns:xlink="http://www.w3.org/1999/xlink"><linearGradient id="a" gradientUnits="userSpaceOnUse" x1="151" x2="151" y1="1" y2="301"><stop offset="0" stop-color="#1d0024"/><stop offset="1" stop-color="#100014"/></linearGradient><clipPath id="b"><path d="m151 301c82.84 0 150-67.16 150-150s-67.16-150-150-150-150 67.16-150 150 67.16 150 150 150z"/></clipPath><linearGradient id="c" gradientUnits="userSpaceOnUse" x1="161.799" x2="161.799" y1="76" y2="201.987"><stop offset="0" stop-color="#ffd4b3"/><stop offset="1" stop-color="#ffdcc2"/></linearGradient><linearGradient id="d" gradientUnits="userSpaceOnUse" x1="151" x2="151" y1="192.548" y2="308.308"><stop offset="0" stop-color="#806a6a"/><stop offset="1" stop-color="#665654"/></linearGradient><linearGradient id="e" gradientUnits="userSpaceOnUse" x1="158.851" x2="158.851" y1="182" y2="32.997"><stop offset="0" stop-color="#e6864e"/><stop offset="1" stop-color="#e67240"/></linearGradient><path d="m151 301c82.84 0 150-67.16 150-150s-67.16-150-150-150-150 67.16-150 150 67.16 150 150 150z" fill="url(#a)"/><g clip-path="url(#b)"><path d="m183 177v22.5c0 4.33-64 2.88-64-3.37 0-5.88.12-32.53 0-59.94-14.33-18.58-14.33-30.19-3-42.19s92-18 92-18 6.05 58.21 7 74c.38 6.35 4.5 27-11.5 27-9 0-20.5 0-20.5 0z" fill="url(#c)"/><path d="m182.98 175.08c-22-2.5-36.98-12.08-36.98-12.08s8 19 36.98 24.16z" fill="#ffd7b8"/><path d="m256 244.31c6.35 12.9 11.35 34.24 15 64h-240c3.65-29.77 8.65-51.1 15-64 6.32-12.86 65-37.61 65-37.61s1.17-11.31 4-12.94c2.83-1.62 68.63-1.62 72 0s4 12.93 4 12.93 58.69 24.78 65 37.62z" fill="url(#d)"/><path d="m132.02 106.21c-3.18-2.74-7.04-4.57-12.51-1.74-12.95 6.73-4.35 32.66 10.14 32.16 5-.18 2.71 9.79-10.65 16.37 0-10.5-16-36.5-17.4-60.17-16.1-6-12.1-29.98-1.04-29.98-1.77-22 33.44-33.35 47.07-20.73 13.87-16.62 48.87-8.12 50.98 6.29 24.07-12.84 39.89 24.09 17.35 38.42-9.27 5.9-30.96 8.15-62.27 8.15-15.03 0-6.39 35.17-1.69 46.52 6 14.5 39.5 16.5 50 15 8.2-1.17 12.5-4.5 13-6.5 7.5 20-2 32-17 32-25.5 0-51-7.5-55-26-3.18-14.72-3.01-38.48-10.98-49.79z" fill="url(#e)"/></g></svg>