<svg height="305" viewBox="0 0 301 305" width="301" xmlns="http://www.w3.org/2000/svg" xmlns:xlink="http://www.w3.org/1999/xlink"><linearGradient id="a" gradientUnits="userSpaceOnUse" x1="151" x2="151" y1="1" y2="301"><stop offset="0" stop-color="#1d0024"/><stop offset="1" stop-color="#100014"/></linearGradient><clipPath id="b"><path d="m151 301c82.84 0 150-67.16 150-150s-67.16-150-150-150-150 67.16-150 150 67.16 150 150 150z"/></clipPath><linearGradient id="c" gradientUnits="userSpaceOnUse" x1="157.861" x2="157.861" y1="80" y2="239.138"><stop offset="0" stop-color="#e6864e"/><stop offset="1" stop-color="#eb965e"/></linearGradient><linearGradient id="d" gradientUnits="userSpaceOnUse" x1="151" x2="151" y1="205" y2="305"><stop offset="0" stop-color="#fecbb5"/><stop offset="1" stop-color="#fed4c4"/></linearGradient><clipPath id="e"><path d="m243 240c7.26 16.12 11 65 11 65h-206s3.74-48.88 11-65c6.36-14.12 48.24-30.34 60.51-35 7.09 7.93 17.25 13 31.49 13s24.4-5.07 31.49-13c12.27 4.66 54.15 20.88 60.51 35z"/></clipPath><path d="m151 301c82.84 0 150-67.16 150-150s-67.16-150-150-150-150 67.16-150 150 67.16 150 150 150z" fill="url(#a)"/><g clip-path="url(#b)"><path d="m200.18 129.13c71.46-58.56 4-112.1-68.46-83.57-7.75 3.05-29.23-9.17-49.13 3.71-12.83 8.3-7.84 14.8-12.83 21.31-5 6.51-24.27 6.13-28.49 23.02-2.5 10.01 4.42 20.49 3.5 28.03-.93 7.53-8.23 14.32-8.58 24.27-.61 17.67 13.2 32.5 30.85 33.12.09 17.19 13.69 31.42 30.98 32.03 5.51.19 19.48.19 31.48-7.05 30.07-18.14 23.32-36.07 70.68-74.87z" fill="#fff"/><path d="m126 195c0-9-.31-53.39-.29-54.14-24.71 3.64-24.21-43.36.79-31.86 5.5 3.5 21 0 19.5-29 27 29 58.35-4.82 61.03 22.74 3.68 37.63-.02 77.02-23.41 77.02-2.23 0-4.78-.25-7.62-.76v16c0 10 18 15 18 15s-31.09 29.3-44 29.14-42-29.14-42-29.14 18-5 18-15z" fill="url(#c)"/><path d="m176 179c-20.32-4.41-34.63-15.1-34.63-15.1s8.63 21.1 34.6 25.1z" fill="#db6f3d"/><path d="m243 240c7.26 16.12 11 65 11 65h-206s3.74-48.88 11-65c6.36-14.12 48.24-30.34 60.51-35 7.09 7.93 17.25 13 31.49 13s24.4-5.07 31.49-13c12.27 4.66 54.15 20.88 60.51 35z" fill="url(#d)"/><g clip-path="url(#e)"><path d="m71 241c3.31 0 6-2.69 6-6s-2.69-6-6-6-6 2.69-6 6 2.69 6 6 6zm40 0c3.31 0 6-2.69 6-6s-2.69-6-6-6-6 2.69-6 6 2.69 6 6 6zm40 0c3.31 0 6-2.69 6-6s-2.69-6-6-6-6 2.69-6 6 2.69 6 6 6zm40 0c3.31 0 6-2.69 6-6s-2.69-6-6-6-6 2.69-6 6 2.69 6 6 6zm40 0c3.31 0 6-2.69 6-6s-2.69-6-6-6-6 2.69-6 6 2.69 6 6 6zm-180-20c3.31 0 6-2.69 6-6s-2.69-6-6-6-6 2.69-6 6 2.69 6 6 6zm40 0c3.31 0 6-2.69 6-6s-2.69-6-6-6-6 2.69-6 6 2.69 6 6 6zm120 0c3.31 0 6-2.69 6-6s-2.69-6-6-6-6 2.69-6 6 2.69 6 6 6zm40 0c3.31 0 6-2.69 6-6s-2.69-6-6-6-6 2.69-6 6 2.69 6 6 6zm-180 60c3.31 0 6-2.69 6-6s-2.69-6-6-6-6 2.69-6 6 2.69 6 6 6zm40 0c3.31 0 6-2.69 6-6s-2.69-6-6-6-6 2.69-6 6 2.69 6 6 6zm40 0c3.31 0 6-2.69 6-6s-2.69-6-6-6-6 2.69-6 6 2.69 6 6 6zm40 0c3.31 0 6-2.69 6-6s-2.69-6-6-6-6 2.69-6 6 2.69 6 6 6zm40 0c3.31 0 6-2.69 6-6s-2.69-6-6-6-6 2.69-6 6 2.69 6 6 6zm-180-20c3.31 0 6-2.69 6-6s-2.69-6-6-6-6 2.69-6 6 2.69 6 6 6zm40 0c3.31 0 6-2.69 6-6s-2.69-6-6-6-6 2.69-6 6 2.69 6 6 6zm40 0c3.31 0 6-2.69 6-6s-2.69-6-6-6-6 2.69-6 6 2.69 6 6 6zm40 0c3.31 0 6-2.69 6-6s-2.69-6-6-6-6 2.69-6 6 2.69 6 6 6zm40 0c3.31 0 6-2.69 6-6s-2.69-6-6-6-6 2.69-6 6 2.69 6 6 6zm40 0c3.31 0 6-2.69 6-6s-2.69-6-6-6-6 2.69-6 6 2.69 6 6 6zm-200 40c3.31 0 6-2.69 6-6s-2.69-6-6-6-6 2.69-6 6 2.69 6 6 6zm40 0c3.31 0 6-2.69 6-6s-2.69-6-6-6-6 2.69-6 6 2.69 6 6 6zm40 0c3.31 0 6-2.69 6-6s-2.69-6-6-6-6 2.69-6 6 2.69 6 6 6zm40 0c3.31 0 6-2.69 6-6s-2.69-6-6-6-6 2.69-6 6 2.69 6 6 6zm40 0c3.31 0 6-2.69 6-6s-2.69-6-6-6-6 2.69-6 6 2.69 6 6 6zm40 0c3.31 0 6-2.69 6-6s-2.69-6-6-6-6 2.69-6 6 2.69 6 6 6z" fill="#ffa789"/></g></g></svg>